<svg id="Слой_1" data-name="Слой 1" xmlns="http://www.w3.org/2000/svg" viewBox="0 0 387.42 380.06"><defs><style>.cls-1{fill:#727fbd;}.cls-2{fill:#e3e3e4;}.cls-3{fill:#6fa0ce;}.cls-4{font-size:116px;fill:#1d1d1b;stroke:#fff;stroke-miterlimit:10;font-family:Rockwell-ExtraBold, Rockwell Extra Bold;font-weight:800;}.cls-5{letter-spacing:-0.1em;}</style></defs><title>KonvertSVG</title><path class="cls-1" d="M306.78,181.58C369.62,132.7,415.69,35.94,495.3,35,557,34.18,693.81,181.58,693.81,181.58h-387" transform="translate(-306.78 -33.42)"/><rect class="cls-2" x="8.29" y="119.84" width="368.45" height="181.98"/><path class="cls-1" d="M315.6,356.27l13.32,21.13a15.65,15.65,0,0,0,2.72,3.24l15.66,14.27a15.86,15.86,0,0,0,2.88,2.08l13.16,7.41a15.64,15.64,0,0,0,3.33,1.39l20.91,6.07a15.88,15.88,0,0,0,3.74.61l24.66,1H602.2a15.75,15.75,0,0,0,3.21-.33l21.72-4.53a15.52,15.52,0,0,0,3.24-1.05l13.38-6a17,17,0,0,0,2.33-1.29l10-6.75a16,16,0,0,0,2.41-2L672.9,377a14.89,14.89,0,0,0,2-2.52l7.12-11a15.08,15.08,0,0,0,1.42-2.77l6.76-17.12a16,16,0,0,0,.93-3.47L694,321a15.94,15.94,0,0,0,.17-2.29l.07-121.14-.4-16s-10.87-.88-11.79-.52a21.65,21.65,0,0,0-7.45,1.23,20,20,0,0,0-8.68,5.78c-21.79,29-114.74,148.45-165.21,148.38S357.93,216.8,336.47,188.11a15.7,15.7,0,0,0-12.58-6.31c-6.49,0-12.14-1-16.72.17" transform="translate(-306.78 -33.42)"/><text x="-306.78" y="-33.42"/><text x="-306.78" y="-33.42"/><path class="cls-3" d="M407.08,76.11c19.09-18,58.61-50.21,100.18-41.1,33.07,7.25,80.27,46,112.16,74.37,30.44,27.06,46.35,43.88,46.35,43.88s-75-.5-94.84-.38c-45.89.26-72.23.38-101.6.38H335.61S403.91,79.09,407.08,76.11Z" transform="translate(-306.78 -33.42)"/><text x="-306.78" y="-33.42"/><text class="cls-4" transform="translate(97.71 228.47)">C<tspan class="cls-5" x="93" y="0"> </tspan><tspan x="110.39" y="0">V</tspan></text><text x="-306.78" y="-33.42"/></svg>